<svg width="20" height="18" viewBox="0 0 20 18" fill="none" xmlns="http://www.w3.org/2000/svg">
<mask id="path-1-inside-1_1265_15333" fill="white">
<path d="M7.72363 0C9.38133 0 10.9731 1.88184 12.6308 1.88184H14.79C16.5894 1.88184 17.4895 1.88224 18.1768 2.23242C18.7811 2.54046 19.2721 3.03229 19.5801 3.63672C19.9302 4.32394 19.9307 5.22334 19.9307 7.02246V12.8594C19.9307 14.6587 19.9303 15.5588 19.5801 16.2461C19.2721 16.8505 18.7812 17.3424 18.1768 17.6504C17.4895 18.0006 16.5894 18 14.79 18H5.14062C3.34126 18 2.44117 18.0006 1.75391 17.6504C1.14951 17.3424 0.658589 16.8505 0.350586 16.2461C0.000405302 15.5588 0 14.6587 0 12.8594V3.21289C0 1.43848 1.43848 0 3.21289 0H7.72363Z"/>
</mask>
<path d="M7.72363 0C9.38133 0 10.9731 1.88184 12.6308 1.88184H14.79C16.5894 1.88184 17.4895 1.88224 18.1768 2.23242C18.7811 2.54046 19.2721 3.03229 19.5801 3.63672C19.9302 4.32394 19.9307 5.22334 19.9307 7.02246V12.8594C19.9307 14.6587 19.9303 15.5588 19.5801 16.2461C19.2721 16.8505 18.7812 17.3424 18.1768 17.6504C17.4895 18.0006 16.5894 18 14.79 18H5.14062C3.34126 18 2.44117 18.0006 1.75391 17.6504C1.14951 17.3424 0.658589 16.8505 0.350586 16.2461C0.000405302 15.5588 0 14.6587 0 12.8594V3.21289C0 1.43848 1.43848 0 3.21289 0H7.72363Z" fill="#D9D9D9"/>
<path d="M7.72363 0C9.38133 0 10.9731 1.88184 12.6308 1.88184H14.79C16.5894 1.88184 17.4895 1.88224 18.1768 2.23242C18.7811 2.54046 19.2721 3.03229 19.5801 3.63672C19.9302 4.32394 19.9307 5.22334 19.9307 7.02246V12.8594C19.9307 14.6587 19.9303 15.5588 19.5801 16.2461C19.2721 16.8505 18.7812 17.3424 18.1768 17.6504C17.4895 18.0006 16.5894 18 14.79 18H5.14062C3.34126 18 2.44117 18.0006 1.75391 17.6504C1.14951 17.3424 0.658589 16.8505 0.350586 16.2461C0.000405302 15.5588 0 14.6587 0 12.8594V3.21289C0 1.43848 1.43848 0 3.21289 0H7.72363Z" fill="url(#paint0_radial_1265_15333)"/>
<path d="M7.72363 0C9.38133 0 10.9731 1.88184 12.6308 1.88184H14.79C16.5894 1.88184 17.4895 1.88224 18.1768 2.23242C18.7811 2.54046 19.2721 3.03229 19.5801 3.63672C19.9302 4.32394 19.9307 5.22334 19.9307 7.02246V12.8594C19.9307 14.6587 19.9303 15.5588 19.5801 16.2461C19.2721 16.8505 18.7812 17.3424 18.1768 17.6504C17.4895 18.0006 16.5894 18 14.79 18H5.14062C3.34126 18 2.44117 18.0006 1.75391 17.6504C1.14951 17.3424 0.658589 16.8505 0.350586 16.2461C0.000405302 15.5588 0 14.6587 0 12.8594V3.21289C0 1.43848 1.43848 0 3.21289 0H7.72363Z" fill="url(#paint1_radial_1265_15333)"/>
<path d="M18.1768 2.23242L18.2351 2.11792L18.2351 2.11791L18.1768 2.23242ZM19.5801 3.63672L19.6946 3.57838L19.6946 3.57837L19.5801 3.63672ZM19.9307 7.02246H20.0592H19.9307ZM19.5801 16.2461L19.6946 16.3044L19.6946 16.3044L19.5801 16.2461ZM18.1768 17.6504L18.2351 17.7649L18.2351 17.7649L18.1768 17.6504ZM1.75391 17.6504L1.69555 17.7649L1.69556 17.7649L1.75391 17.6504ZM0.350586 16.2461L0.236079 16.3044L0.236082 16.3044L0.350586 16.2461ZM12.6308 1.88184V2.01035H14.79V1.88184V1.75332H12.6308V1.88184ZM14.79 1.88184V2.01035C15.6918 2.01035 16.3606 2.01055 16.8899 2.0539C17.4179 2.09712 17.7959 2.1826 18.1184 2.34693L18.1768 2.23242L18.2351 2.11791C17.8703 1.93206 17.4547 1.84225 16.9109 1.79773C16.3686 1.75332 15.6876 1.75332 14.79 1.75332V1.88184ZM18.1768 2.23242L18.1184 2.34692C18.6985 2.6426 19.1699 3.11475 19.4656 3.69506L19.5801 3.63672L19.6946 3.57837C19.3743 2.94984 18.8637 2.43832 18.2351 2.11792L18.1768 2.23242ZM19.5801 3.63672L19.4656 3.69505C19.6299 4.01756 19.7153 4.39544 19.7586 4.92312C19.8019 5.45231 19.8021 6.1208 19.8021 7.02246H19.9307H20.0592C20.0592 6.125 20.0592 5.44424 20.0147 4.90214C19.9702 4.35853 19.8804 3.94311 19.6946 3.57838L19.5801 3.63672ZM19.9307 7.02246H19.8021V12.8594H19.9307H20.0592V7.02246H19.9307ZM19.9307 12.8594H19.8021C19.8021 13.7612 19.8019 14.4299 19.7586 14.9593C19.7154 15.4872 19.6299 15.8652 19.4656 16.1877L19.5801 16.2461L19.6946 16.3044C19.8804 15.9397 19.9702 15.5241 20.0148 14.9803C20.0592 14.438 20.0592 13.757 20.0592 12.8594H19.9307ZM19.5801 16.2461L19.4656 16.1877C19.1698 16.768 18.6985 17.2402 18.1184 17.5359L18.1768 17.6504L18.2351 17.7649C18.8638 17.4445 19.3743 16.9329 19.6946 16.3044L19.5801 16.2461ZM18.1768 17.6504L18.1184 17.5359C17.7959 17.7002 17.4179 17.7854 16.89 17.8284C16.3606 17.8715 15.6919 17.8715 14.79 17.8715V18V18.1285C15.6876 18.1285 16.3686 18.1288 16.9109 18.0846C17.4546 18.0403 17.8703 17.9508 18.2351 17.7649L18.1768 17.6504ZM14.79 18V17.8715H5.14062V18V18.1285H14.79V18ZM5.14062 18V17.8715C4.2388 17.8715 3.57008 17.8715 3.04066 17.8284C2.51274 17.7854 2.13472 17.7002 1.81225 17.5359L1.75391 17.6504L1.69556 17.7649C2.06036 17.9508 2.47602 18.0403 3.0198 18.0846C3.56208 18.1288 4.24308 18.1285 5.14062 18.1285V18ZM1.75391 17.6504L1.81226 17.5359C1.23212 17.2402 0.760814 16.768 0.46509 16.1877L0.350586 16.2461L0.236082 16.3044C0.556363 16.9329 1.0669 17.4445 1.69555 17.7649L1.75391 17.6504ZM0.350586 16.2461L0.465093 16.1877C0.300766 15.8652 0.215284 15.4872 0.172061 14.9593C0.128716 14.4299 0.128514 13.7612 0.128514 12.8594H0H-0.128514C-0.128514 13.757 -0.128513 14.438 -0.0841105 14.9803C-0.0395857 15.5241 0.0502254 15.9397 0.236079 16.3044L0.350586 16.2461ZM0 12.8594H0.128514V3.21289H0H-0.128514V12.8594H0ZM0 3.21289H0.128514C0.128514 1.50945 1.50945 0.128514 3.21289 0.128514V0V-0.128514C1.3675 -0.128514 -0.128514 1.3675 -0.128514 3.21289H0ZM3.21289 0V0.128514H7.72363V0V-0.128514H3.21289V0ZM7.72363 0V0.128514C8.51112 0.128514 9.29172 0.576622 10.1128 1.05213C10.9164 1.51754 11.7605 2.01035 12.6308 2.01035V1.88184V1.75332C11.8433 1.75332 11.0627 1.30521 10.2416 0.829707C9.43796 0.364296 8.59384 -0.128514 7.72363 -0.128514V0Z" fill="url(#paint2_linear_1265_15333)" mask="url(#path-1-inside-1_1265_15333)"/>
<path d="M18.1768 2.23242L18.2351 2.11792L18.2351 2.11791L18.1768 2.23242ZM19.5801 3.63672L19.6946 3.57838L19.6946 3.57837L19.5801 3.63672ZM19.9307 7.02246H20.0592H19.9307ZM19.5801 16.2461L19.6946 16.3044L19.6946 16.3044L19.5801 16.2461ZM18.1768 17.6504L18.2351 17.7649L18.2351 17.7649L18.1768 17.6504ZM1.75391 17.6504L1.69555 17.7649L1.69556 17.7649L1.75391 17.6504ZM0.350586 16.2461L0.236079 16.3044L0.236082 16.3044L0.350586 16.2461ZM12.6308 1.88184V2.01035H14.79V1.88184V1.75332H12.6308V1.88184ZM14.79 1.88184V2.01035C15.6918 2.01035 16.3606 2.01055 16.8899 2.0539C17.4179 2.09712 17.7959 2.1826 18.1184 2.34693L18.1768 2.23242L18.2351 2.11791C17.8703 1.93206 17.4547 1.84225 16.9109 1.79773C16.3686 1.75332 15.6876 1.75332 14.79 1.75332V1.88184ZM18.1768 2.23242L18.1184 2.34692C18.6985 2.6426 19.1699 3.11475 19.4656 3.69506L19.5801 3.63672L19.6946 3.57837C19.3743 2.94984 18.8637 2.43832 18.2351 2.11792L18.1768 2.23242ZM19.5801 3.63672L19.4656 3.69505C19.6299 4.01756 19.7153 4.39544 19.7586 4.92312C19.8019 5.45231 19.8021 6.1208 19.8021 7.02246H19.9307H20.0592C20.0592 6.125 20.0592 5.44424 20.0147 4.90214C19.9702 4.35853 19.8804 3.94311 19.6946 3.57838L19.5801 3.63672ZM19.9307 7.02246H19.8021V12.8594H19.9307H20.0592V7.02246H19.9307ZM19.9307 12.8594H19.8021C19.8021 13.7612 19.8019 14.4299 19.7586 14.9593C19.7154 15.4872 19.6299 15.8652 19.4656 16.1877L19.5801 16.2461L19.6946 16.3044C19.8804 15.9397 19.9702 15.5241 20.0148 14.9803C20.0592 14.438 20.0592 13.757 20.0592 12.8594H19.9307ZM19.5801 16.2461L19.4656 16.1877C19.1698 16.768 18.6985 17.2402 18.1184 17.5359L18.1768 17.6504L18.2351 17.7649C18.8638 17.4445 19.3743 16.9329 19.6946 16.3044L19.5801 16.2461ZM18.1768 17.6504L18.1184 17.5359C17.7959 17.7002 17.4179 17.7854 16.89 17.8284C16.3606 17.8715 15.6919 17.8715 14.79 17.8715V18V18.1285C15.6876 18.1285 16.3686 18.1288 16.9109 18.0846C17.4546 18.0403 17.8703 17.9508 18.2351 17.7649L18.1768 17.6504ZM14.79 18V17.8715H5.14062V18V18.1285H14.79V18ZM5.14062 18V17.8715C4.2388 17.8715 3.57008 17.8715 3.04066 17.8284C2.51274 17.7854 2.13472 17.7002 1.81225 17.5359L1.75391 17.6504L1.69556 17.7649C2.06036 17.9508 2.47602 18.0403 3.0198 18.0846C3.56208 18.1288 4.24308 18.1285 5.14062 18.1285V18ZM1.75391 17.6504L1.81226 17.5359C1.23212 17.2402 0.760814 16.768 0.46509 16.1877L0.350586 16.2461L0.236082 16.3044C0.556363 16.9329 1.0669 17.4445 1.69555 17.7649L1.75391 17.6504ZM0.350586 16.2461L0.465093 16.1877C0.300766 15.8652 0.215284 15.4872 0.172061 14.9593C0.128716 14.4299 0.128514 13.7612 0.128514 12.8594H0H-0.128514C-0.128514 13.757 -0.128513 14.438 -0.0841105 14.9803C-0.0395857 15.5241 0.0502254 15.9397 0.236079 16.3044L0.350586 16.2461ZM0 12.8594H0.128514V3.21289H0H-0.128514V12.8594H0ZM0 3.21289H0.128514C0.128514 1.50945 1.50945 0.128514 3.21289 0.128514V0V-0.128514C1.3675 -0.128514 -0.128514 1.3675 -0.128514 3.21289H0ZM3.21289 0V0.128514H7.72363V0V-0.128514H3.21289V0ZM7.72363 0V0.128514C8.51112 0.128514 9.29172 0.576622 10.1128 1.05213C10.9164 1.51754 11.7605 2.01035 12.6308 2.01035V1.88184V1.75332C11.8433 1.75332 11.0627 1.30521 10.2416 0.829707C9.43796 0.364296 8.59384 -0.128514 7.72363 -0.128514V0Z" fill="url(#paint3_linear_1265_15333)" mask="url(#path-1-inside-1_1265_15333)"/>
<path d="M18.1768 2.23242L18.2351 2.11792L18.2351 2.11791L18.1768 2.23242ZM19.5801 3.63672L19.6946 3.57838L19.6946 3.57837L19.5801 3.63672ZM19.9307 7.02246H20.0592H19.9307ZM19.5801 16.2461L19.6946 16.3044L19.6946 16.3044L19.5801 16.2461ZM18.1768 17.6504L18.2351 17.7649L18.2351 17.7649L18.1768 17.6504ZM1.75391 17.6504L1.69555 17.7649L1.69556 17.7649L1.75391 17.6504ZM0.350586 16.2461L0.236079 16.3044L0.236082 16.3044L0.350586 16.2461ZM12.6308 1.88184V2.01035H14.79V1.88184V1.75332H12.6308V1.88184ZM14.79 1.88184V2.01035C15.6918 2.01035 16.3606 2.01055 16.8899 2.0539C17.4179 2.09712 17.7959 2.1826 18.1184 2.34693L18.1768 2.23242L18.2351 2.11791C17.8703 1.93206 17.4547 1.84225 16.9109 1.79773C16.3686 1.75332 15.6876 1.75332 14.79 1.75332V1.88184ZM18.1768 2.23242L18.1184 2.34692C18.6985 2.6426 19.1699 3.11475 19.4656 3.69506L19.5801 3.63672L19.6946 3.57837C19.3743 2.94984 18.8637 2.43832 18.2351 2.11792L18.1768 2.23242ZM19.5801 3.63672L19.4656 3.69505C19.6299 4.01756 19.7153 4.39544 19.7586 4.92312C19.8019 5.45231 19.8021 6.1208 19.8021 7.02246H19.9307H20.0592C20.0592 6.125 20.0592 5.44424 20.0147 4.90214C19.9702 4.35853 19.8804 3.94311 19.6946 3.57838L19.5801 3.63672ZM19.9307 7.02246H19.8021V12.8594H19.9307H20.0592V7.02246H19.9307ZM19.9307 12.8594H19.8021C19.8021 13.7612 19.8019 14.4299 19.7586 14.9593C19.7154 15.4872 19.6299 15.8652 19.4656 16.1877L19.5801 16.2461L19.6946 16.3044C19.8804 15.9397 19.9702 15.5241 20.0148 14.9803C20.0592 14.438 20.0592 13.757 20.0592 12.8594H19.9307ZM19.5801 16.2461L19.4656 16.1877C19.1698 16.768 18.6985 17.2402 18.1184 17.5359L18.1768 17.6504L18.2351 17.7649C18.8638 17.4445 19.3743 16.9329 19.6946 16.3044L19.5801 16.2461ZM18.1768 17.6504L18.1184 17.5359C17.7959 17.7002 17.4179 17.7854 16.89 17.8284C16.3606 17.8715 15.6919 17.8715 14.79 17.8715V18V18.1285C15.6876 18.1285 16.3686 18.1288 16.9109 18.0846C17.4546 18.0403 17.8703 17.9508 18.2351 17.7649L18.1768 17.6504ZM14.79 18V17.8715H5.14062V18V18.1285H14.79V18ZM5.14062 18V17.8715C4.2388 17.8715 3.57008 17.8715 3.04066 17.8284C2.51274 17.7854 2.13472 17.7002 1.81225 17.5359L1.75391 17.6504L1.69556 17.7649C2.06036 17.9508 2.47602 18.0403 3.0198 18.0846C3.56208 18.1288 4.24308 18.1285 5.14062 18.1285V18ZM1.75391 17.6504L1.81226 17.5359C1.23212 17.2402 0.760814 16.768 0.46509 16.1877L0.350586 16.2461L0.236082 16.3044C0.556363 16.9329 1.0669 17.4445 1.69555 17.7649L1.75391 17.6504ZM0.350586 16.2461L0.465093 16.1877C0.300766 15.8652 0.215284 15.4872 0.172061 14.9593C0.128716 14.4299 0.128514 13.7612 0.128514 12.8594H0H-0.128514C-0.128514 13.757 -0.128513 14.438 -0.0841105 14.9803C-0.0395857 15.5241 0.0502254 15.9397 0.236079 16.3044L0.350586 16.2461ZM0 12.8594H0.128514V3.21289H0H-0.128514V12.8594H0ZM0 3.21289H0.128514C0.128514 1.50945 1.50945 0.128514 3.21289 0.128514V0V-0.128514C1.3675 -0.128514 -0.128514 1.3675 -0.128514 3.21289H0ZM3.21289 0V0.128514H7.72363V0V-0.128514H3.21289V0ZM7.72363 0V0.128514C8.51112 0.128514 9.29172 0.576622 10.1128 1.05213C10.9164 1.51754 11.7605 2.01035 12.6308 2.01035V1.88184V1.75332C11.8433 1.75332 11.0627 1.30521 10.2416 0.829707C9.43796 0.364296 8.59384 -0.128514 7.72363 -0.128514V0Z" fill="url(#paint4_linear_1265_15333)" mask="url(#path-1-inside-1_1265_15333)"/>
<defs>
<radialGradient id="paint0_radial_1265_15333" cx="0" cy="0" r="1" gradientTransform="matrix(-19.2877 -18.6413 20.6179 -19.927 19.9307 18.02)" gradientUnits="userSpaceOnUse">
<stop stop-color="#0068E7"/>
<stop offset="1" stop-color="#158DEF"/>
</radialGradient>
<radialGradient id="paint1_radial_1265_15333" cx="0" cy="0" r="1" gradientTransform="matrix(-19.9307 -18.02 19.9307 -30.0646 19.9307 18.02)" gradientUnits="userSpaceOnUse">
<stop stop-color="#E37B01"/>
<stop offset="1" stop-color="#EDB31F"/>
</radialGradient>
<linearGradient id="paint2_linear_1265_15333" x1="0" y1="0" x2="19.2622" y2="19.6087" gradientUnits="userSpaceOnUse">
<stop offset="0.508799" stop-color="#85BFF8"/>
<stop offset="1" stop-color="#1050A9"/>
</linearGradient>
<linearGradient id="paint3_linear_1265_15333" x1="0" y1="0" x2="22.2721" y2="15.38" gradientUnits="userSpaceOnUse">
<stop offset="0.228092" stop-color="#85BFF8"/>
<stop offset="0.99027" stop-color="#0567E4"/>
</linearGradient>
<linearGradient id="paint4_linear_1265_15333" x1="0" y1="0" x2="22.2721" y2="15.38" gradientUnits="userSpaceOnUse">
<stop offset="0.228092" stop-color="#FFD178"/>
<stop offset="0.802791" stop-color="#E48207"/>
</linearGradient>
</defs>
</svg>
