<svg width="56" height="56" viewBox="0 0 56 56" fill="none" xmlns="http://www.w3.org/2000/svg">
<path d="M4.66699 28.0002C4.66699 40.8868 15.1137 51.3335 28.0003 51.3335C40.887 51.3335 51.3337 40.8868 51.3337 28.0002C51.3337 15.1135 40.887 4.66683 28.0003 4.66683C15.1137 4.66683 4.66699 15.1135 4.66699 28.0002Z" fill="#FAFAFA"/>
<g filter="url(#filter0_ddiii_685_4262)">
<mask id="path-2-inside-1_685_4262" fill="white">
<path d="M27.9995 4.6665C40.8861 4.6665 51.3324 15.113 51.3325 27.9995C51.3325 40.8862 40.8862 51.3335 27.9995 51.3335C15.1129 51.3335 4.6665 40.8862 4.6665 27.9995C4.66667 15.113 15.113 4.6665 27.9995 4.6665ZM26.5747 22.1001C26.1813 24.4975 24.3429 26.3997 21.9604 26.8755L16.3325 27.9995L21.9604 29.1235C24.3429 29.5993 26.1813 31.5025 26.5747 33.8999L27.9995 42.5835L29.4243 33.8999C29.8177 31.5025 31.6562 29.5993 34.0386 29.1235L39.6665 27.9995L34.0386 26.8755C31.6561 26.3997 29.8177 24.4975 29.4243 22.1001L27.9995 13.4165L26.5747 22.1001ZM35.3286 18.5913C35.2262 19.2144 34.7487 19.7088 34.1294 19.8325L32.6665 20.1245L34.1294 20.4175C34.7487 20.5412 35.2263 21.0354 35.3286 21.6587L35.6997 23.9165L36.0698 21.6587C36.1721 21.0354 36.6506 20.5412 37.27 20.4175L38.7329 20.1245L37.27 19.8325C36.6507 19.7088 36.1722 19.2145 36.0698 18.5913L35.6997 16.3335L35.3286 18.5913Z"/>
</mask>
<path d="M27.9995 4.6665C40.8861 4.6665 51.3324 15.113 51.3325 27.9995C51.3325 40.8862 40.8862 51.3335 27.9995 51.3335C15.1129 51.3335 4.6665 40.8862 4.6665 27.9995C4.66667 15.113 15.113 4.6665 27.9995 4.6665ZM26.5747 22.1001C26.1813 24.4975 24.3429 26.3997 21.9604 26.8755L16.3325 27.9995L21.9604 29.1235C24.3429 29.5993 26.1813 31.5025 26.5747 33.8999L27.9995 42.5835L29.4243 33.8999C29.8177 31.5025 31.6562 29.5993 34.0386 29.1235L39.6665 27.9995L34.0386 26.8755C31.6561 26.3997 29.8177 24.4975 29.4243 22.1001L27.9995 13.4165L26.5747 22.1001ZM35.3286 18.5913C35.2262 19.2144 34.7487 19.7088 34.1294 19.8325L32.6665 20.1245L34.1294 20.4175C34.7487 20.5412 35.2263 21.0354 35.3286 21.6587L35.6997 23.9165L36.0698 21.6587C36.1721 21.0354 36.6506 20.5412 37.27 20.4175L38.7329 20.1245L37.27 19.8325C36.6507 19.7088 36.1722 19.2145 36.0698 18.5913L35.6997 16.3335L35.3286 18.5913Z" fill="#0C111D"/>
<path d="M27.9995 4.6665V3.33317V4.6665ZM51.3325 27.9995H52.6659V27.9995L51.3325 27.9995ZM27.9995 51.3335V52.6668V51.3335ZM4.6665 27.9995L3.33317 27.9995V27.9995H4.6665ZM26.5747 22.1001L27.8904 22.316L27.8904 22.316L26.5747 22.1001ZM21.9604 26.8755L21.6993 25.568L21.6993 25.568L21.9604 26.8755ZM16.3325 27.9995L16.0714 26.692V29.307L16.3325 27.9995ZM21.9604 29.1235L21.6993 30.431L21.6993 30.431L21.9604 29.1235ZM26.5747 33.8999L27.8904 33.684L27.8904 33.684L26.5747 33.8999ZM27.9995 42.5835L26.6838 42.7994H29.3153L27.9995 42.5835ZM29.4243 33.8999L28.1086 33.684L28.1086 33.684L29.4243 33.8999ZM34.0386 29.1235L34.2997 30.431L34.2997 30.431L34.0386 29.1235ZM39.6665 27.9995L39.9276 29.307V26.692L39.6665 27.9995ZM34.0386 26.8755L34.2997 25.568L34.2997 25.568L34.0386 26.8755ZM29.4243 22.1001L28.1086 22.316L28.1086 22.316L29.4243 22.1001ZM27.9995 13.4165L29.3153 13.2006H26.6838L27.9995 13.4165ZM35.3286 18.5913L36.6443 18.8076L36.6443 18.8076L35.3286 18.5913ZM34.1294 19.8325L34.3904 21.1401L34.3905 21.14L34.1294 19.8325ZM32.6665 20.1245L32.4055 18.817L32.4047 21.4319L32.6665 20.1245ZM34.1294 20.4175L33.8676 21.7249L33.8682 21.725L34.1294 20.4175ZM35.3286 21.6587L34.0129 21.8747L34.0129 21.8749L35.3286 21.6587ZM35.6997 23.9165L34.384 24.1327L37.0155 24.1322L35.6997 23.9165ZM36.0698 21.6587L34.7541 21.4428L34.7541 21.443L36.0698 21.6587ZM37.27 20.4175L37.5311 21.725L37.5318 21.7249L37.27 20.4175ZM38.7329 20.1245L38.9947 21.4319L38.9939 18.817L38.7329 20.1245ZM37.27 19.8325L37.0089 21.14L37.009 21.1401L37.27 19.8325ZM36.0698 18.5913L34.7541 18.807L34.7541 18.8075L36.0698 18.5913ZM35.6997 16.3335L37.0155 16.1178L34.384 16.1173L35.6997 16.3335ZM27.9995 4.6665V5.99984C40.1497 5.99984 49.999 15.8494 49.9992 27.9995L51.3325 27.9995L52.6659 27.9995C52.6657 14.3766 41.6224 3.33317 27.9995 3.33317V4.6665ZM51.3325 27.9995H49.9992C49.9992 40.1498 40.1497 50.0002 27.9995 50.0002V51.3335V52.6668C41.6226 52.6668 52.6659 41.6225 52.6659 27.9995H51.3325ZM27.9995 51.3335V50.0002C15.8493 50.0002 5.99984 40.1498 5.99984 27.9995H4.6665H3.33317C3.33317 41.6225 14.3764 52.6668 27.9995 52.6668V51.3335ZM4.6665 27.9995L5.99984 27.9995C5.99999 15.8494 15.8494 5.99984 27.9995 5.99984V4.6665V3.33317C14.3766 3.33317 3.33334 14.3766 3.33317 27.9995L4.6665 27.9995ZM26.5747 22.1001L25.259 21.8842C24.9555 23.7334 23.5374 25.2009 21.6993 25.568L21.9604 26.8755L22.2216 28.183C25.1483 27.5985 27.4071 25.2616 27.8904 22.316L26.5747 22.1001ZM21.9604 26.8755L21.6993 25.568L16.0714 26.692L16.3325 27.9995L16.5937 29.307L22.2216 28.183L21.9604 26.8755ZM16.3325 27.9995L16.0714 29.307L21.6993 30.431L21.9604 29.1235L22.2216 27.816L16.5937 26.692L16.3325 27.9995ZM21.9604 29.1235L21.6993 30.431C23.5371 30.7981 24.9555 32.2663 25.259 34.1158L26.5747 33.8999L27.8904 33.684C27.4071 30.7387 25.1486 28.4006 22.2216 27.816L21.9604 29.1235ZM26.5747 33.8999L25.259 34.1158L26.6838 42.7994L27.9995 42.5835L29.3153 42.3676L27.8904 33.684L26.5747 33.8999ZM27.9995 42.5835L29.3153 42.7994L30.7401 34.1158L29.4243 33.8999L28.1086 33.684L26.6838 42.3676L27.9995 42.5835ZM29.4243 33.8999L30.7401 34.1158C31.0436 32.2663 32.4619 30.7981 34.2997 30.431L34.0386 29.1235L33.7775 27.816C30.8504 28.4006 28.5919 30.7387 28.1086 33.684L29.4243 33.8999ZM34.0386 29.1235L34.2997 30.431L39.9276 29.307L39.6665 27.9995L39.4054 26.692L33.7774 27.816L34.0386 29.1235ZM39.6665 27.9995L39.9276 26.692L34.2997 25.568L34.0386 26.8755L33.7774 28.183L39.4054 29.307L39.6665 27.9995ZM34.0386 26.8755L34.2997 25.568C32.4616 25.2009 31.0435 23.7334 30.7401 21.8842L29.4243 22.1001L28.1086 22.316C28.592 25.2616 30.8507 27.5985 33.7775 28.183L34.0386 26.8755ZM29.4243 22.1001L30.7401 21.8842L29.3153 13.2006L27.9995 13.4165L26.6838 13.6324L28.1086 22.316L29.4243 22.1001ZM27.9995 13.4165L26.6838 13.2006L25.259 21.8842L26.5747 22.1001L27.8904 22.316L29.3153 13.6324L27.9995 13.4165ZM35.3286 18.5913L34.0129 18.375C34.0005 18.4507 33.9427 18.5101 33.8683 18.525L34.1294 19.8325L34.3905 21.14C35.5546 20.9075 36.4518 19.9781 36.6443 18.8076L35.3286 18.5913ZM34.1294 19.8325L33.8684 18.525L32.4055 18.817L32.6665 20.1245L32.9275 21.4321L34.3904 21.1401L34.1294 19.8325ZM32.6665 20.1245L32.4047 21.4319L33.8676 21.7249L34.1294 20.4175L34.3912 19.1101L32.9283 18.8171L32.6665 20.1245ZM34.1294 20.4175L33.8682 21.725C33.9431 21.7399 34.0005 21.7994 34.0129 21.8747L35.3286 21.6587L36.6443 21.4427C36.4521 20.2715 35.5544 19.3425 34.3906 19.11L34.1294 20.4175ZM35.3286 21.6587L34.0129 21.8749L34.384 24.1327L35.6997 23.9165L37.0154 23.7003L36.6443 21.4424L35.3286 21.6587ZM35.6997 23.9165L37.0155 24.1322L37.3856 21.8744L36.0698 21.6587L34.7541 21.443L34.3839 23.7008L35.6997 23.9165ZM36.0698 21.6587L37.3856 21.8746C37.3977 21.8006 37.455 21.7402 37.5311 21.725L37.27 20.4175L37.0089 19.11C35.8462 19.3422 34.9465 20.2702 34.7541 21.4428L36.0698 21.6587ZM37.27 20.4175L37.5318 21.7249L38.9947 21.4319L38.7329 20.1245L38.4711 18.8171L37.0082 19.1101L37.27 20.4175ZM38.7329 20.1245L38.9939 18.817L37.531 18.525L37.27 19.8325L37.009 21.1401L38.4719 21.4321L38.7329 20.1245ZM37.27 19.8325L37.5311 18.525C37.4553 18.5099 37.3977 18.4494 37.3855 18.3751L36.0698 18.5913L34.7541 18.8075C34.9467 19.9795 35.8461 20.9078 37.0089 21.14L37.27 19.8325ZM36.0698 18.5913L37.3856 18.3756L37.0155 16.1178L35.6997 16.3335L34.3839 16.5492L34.7541 18.807L36.0698 18.5913ZM35.6997 16.3335L34.384 16.1173L34.0129 18.3751L35.3286 18.5913L36.6443 18.8076L37.0154 16.5497L35.6997 16.3335Z" fill="url(#paint0_linear_685_4262)" mask="url(#path-2-inside-1_685_4262)"/>
</g>
<defs>
<filter id="filter0_ddiii_685_4262" x="2.6665" y="2.6665" width="50.666" height="52.667" filterUnits="userSpaceOnUse" color-interpolation-filters="sRGB">
<feFlood flood-opacity="0" result="BackgroundImageFix"/>
<feColorMatrix in="SourceAlpha" type="matrix" values="0 0 0 0 0 0 0 0 0 0 0 0 0 0 0 0 0 0 127 0" result="hardAlpha"/>
<feOffset dy="0.666667"/>
<feGaussianBlur stdDeviation="0.333333"/>
<feComposite in2="hardAlpha" operator="out"/>
<feColorMatrix type="matrix" values="0 0 0 0 0.162923 0 0 0 0 0.162923 0 0 0 0 0.162923 0 0 0 0.08 0"/>
<feBlend mode="normal" in2="BackgroundImageFix" result="effect1_dropShadow_685_4262"/>
<feColorMatrix in="SourceAlpha" type="matrix" values="0 0 0 0 0 0 0 0 0 0 0 0 0 0 0 0 0 0 127 0" result="hardAlpha"/>
<feMorphology radius="0.666667" operator="erode" in="SourceAlpha" result="effect2_dropShadow_685_4262"/>
<feOffset dy="2"/>
<feGaussianBlur stdDeviation="1.33333"/>
<feComposite in2="hardAlpha" operator="out"/>
<feColorMatrix type="matrix" values="0 0 0 0 0.164706 0 0 0 0 0.164706 0 0 0 0 0.164706 0 0 0 0.14 0"/>
<feBlend mode="normal" in2="effect1_dropShadow_685_4262" result="effect2_dropShadow_685_4262"/>
<feBlend mode="normal" in="SourceGraphic" in2="effect2_dropShadow_685_4262" result="shape"/>
<feColorMatrix in="SourceAlpha" type="matrix" values="0 0 0 0 0 0 0 0 0 0 0 0 0 0 0 0 0 0 127 0" result="hardAlpha"/>
<feOffset dy="-2"/>
<feGaussianBlur stdDeviation="1"/>
<feComposite in2="hardAlpha" operator="arithmetic" k2="-1" k3="1"/>
<feColorMatrix type="matrix" values="0 0 0 0 0 0 0 0 0 0 0 0 0 0 0 0 0 0 0.1 0"/>
<feBlend mode="normal" in2="shape" result="effect3_innerShadow_685_4262"/>
<feColorMatrix in="SourceAlpha" type="matrix" values="0 0 0 0 0 0 0 0 0 0 0 0 0 0 0 0 0 0 127 0" result="hardAlpha"/>
<feOffset dy="2"/>
<feGaussianBlur stdDeviation="1"/>
<feComposite in2="hardAlpha" operator="arithmetic" k2="-1" k3="1"/>
<feColorMatrix type="matrix" values="0 0 0 0 1 0 0 0 0 1 0 0 0 0 1 0 0 0 0.1 0"/>
<feBlend mode="normal" in2="effect3_innerShadow_685_4262" result="effect4_innerShadow_685_4262"/>
<feColorMatrix in="SourceAlpha" type="matrix" values="0 0 0 0 0 0 0 0 0 0 0 0 0 0 0 0 0 0 127 0" result="hardAlpha"/>
<feMorphology radius="0.666667" operator="erode" in="SourceAlpha" result="effect5_innerShadow_685_4262"/>
<feOffset/>
<feComposite in2="hardAlpha" operator="arithmetic" k2="-1" k3="1"/>
<feColorMatrix type="matrix" values="0 0 0 0 0.0627451 0 0 0 0 0.0941176 0 0 0 0 0.156863 0 0 0 0.24 0"/>
<feBlend mode="normal" in2="effect4_innerShadow_685_4262" result="effect5_innerShadow_685_4262"/>
</filter>
<linearGradient id="paint0_linear_685_4262" x1="27.9995" y1="4.6665" x2="27.9995" y2="51.3335" gradientUnits="userSpaceOnUse">
<stop stop-color="white" stop-opacity="0.12"/>
<stop offset="1" stop-color="white" stop-opacity="0"/>
</linearGradient>
</defs>
</svg>
