<svg width="16" height="16" viewBox="0 0 16 16" fill="none" xmlns="http://www.w3.org/2000/svg">
<g clip-path="url(#clip0_1039_9201)">
<path d="M15.4912 6.80859C15.5595 7.26231 15.5938 7.72414 15.5938 8.18457C15.5937 10.5199 14.7721 12.4804 13.3584 13.8193H11.1318V12.2002C11.9713 11.6017 12.5442 10.6992 12.7275 9.68359L12.7803 9.38965H8.41016V6.80859H15.4912Z" fill="#4285F4" stroke="#09090B" stroke-width="0.5"/>
<path d="M8.15974 16.0002C10.3174 16.0002 12.137 15.2918 13.4627 14.0689L10.8847 12.07C10.1675 12.558 9.2415 12.8343 8.16268 12.8343C6.0756 12.8343 4.30598 11.4263 3.67104 9.5332H1.01074V11.5938C2.36882 14.2953 5.13494 16.0002 8.15974 16.0002Z" fill="#34A853"/>
<path d="M3.66852 9.5338C3.33341 8.54023 3.33341 7.46435 3.66852 6.47078V4.41016H1.01116C-0.123511 6.67067 -0.123511 9.33391 1.01116 11.5944L3.66852 9.5338Z" fill="#FBBC04"/>
<path d="M8.15974 3.16644C9.30029 3.1488 10.4026 3.57798 11.2286 4.36578L13.5127 2.08174C12.0664 0.72367 10.1469 -0.0229773 8.15974 0.000539111C5.13494 0.000539111 2.36882 1.70548 1.01074 4.40987L3.6681 6.4705C4.3001 4.57449 6.07266 3.16644 8.15974 3.16644Z" fill="#EA4335"/>
</g>
<defs>
<clipPath id="clip0_1039_9201">
<rect width="16" height="16" fill="white"/>
</clipPath>
</defs>
</svg>
