<svg width="16" height="16" viewBox="0 0 16 16" fill="none" xmlns="http://www.w3.org/2000/svg">
<g clip-path="url(#clip0_865_4227)">
<path d="M6.62455 10.3332C6.56503 10.1025 6.44477 9.89191 6.27629 9.72343C6.10781 9.55495 5.89726 9.43469 5.66655 9.37517L1.57655 8.32051C1.50677 8.3007 1.44535 8.25867 1.40162 8.2008C1.35789 8.14293 1.33423 8.07238 1.33423 7.99984C1.33423 7.9273 1.35789 7.85675 1.40162 7.79888C1.44535 7.74101 1.50677 7.69898 1.57655 7.67917L5.66655 6.62384C5.89718 6.56438 6.10767 6.44422 6.27615 6.27587C6.44462 6.10751 6.56492 5.8971 6.62455 5.66651L7.67921 1.57651C7.69882 1.50645 7.7408 1.44474 7.79876 1.40077C7.85672 1.35681 7.92747 1.33301 8.00021 1.33301C8.07296 1.33301 8.14371 1.35681 8.20166 1.40077C8.25962 1.44474 8.30161 1.50645 8.32121 1.57651L9.37521 5.66651C9.43473 5.89722 9.55499 6.10777 9.72347 6.27625C9.89195 6.44473 10.1025 6.56499 10.3332 6.62451L14.4232 7.67851C14.4935 7.69791 14.5556 7.73985 14.5998 7.79789C14.644 7.85594 14.6679 7.92688 14.6679 7.99984C14.6679 8.0728 14.644 8.14374 14.5998 8.20179C14.5556 8.25983 14.4935 8.30177 14.4232 8.32117L10.3332 9.37517C10.1025 9.43469 9.89195 9.55495 9.72347 9.72343C9.55499 9.89191 9.43473 10.1025 9.37521 10.3332L8.32055 14.4232C8.30094 14.4932 8.25896 14.5549 8.201 14.5989C8.14304 14.6429 8.07229 14.6667 7.99955 14.6667C7.9268 14.6667 7.85605 14.6429 7.79809 14.5989C7.74013 14.5549 7.69815 14.4932 7.67855 14.4232L6.62455 10.3332Z" stroke="#09090B" stroke-width="1.5" stroke-linecap="round" stroke-linejoin="round"/>
<path d="M13.3333 2V4.66667" stroke="#09090B" stroke-width="2" stroke-linecap="round" stroke-linejoin="round"/>
<path d="M14.6667 3.3335H12" stroke="#09090B" stroke-width="2" stroke-linecap="round" stroke-linejoin="round"/>
</g>
<defs>
<clipPath id="clip0_865_4227">
<rect width="16" height="16" fill="white"/>
</clipPath>
</defs>
</svg>
