<svg width="153" height="73" viewBox="0 0 153 73" fill="none" xmlns="http://www.w3.org/2000/svg">
<g opacity="0.8">
<g clip-path="url(#clip0_1255_177141)">
<path d="M5.0931 12.3852C4.63192 9.10372 6.91821 6.06971 10.1997 5.60853L27.4897 3.17857L47.5439 16.9668L51.4623 44.8478C51.9235 48.1292 49.6372 51.1632 46.3557 51.6244L17.2418 55.7161C13.9604 56.1773 10.9264 53.891 10.4652 50.6095L5.0931 12.3852Z" fill="#B91C1C"/>
<path d="M36.6112 18.5033L47.5438 16.9668L27.4897 3.17865L28.8181 12.6308C29.3484 16.4044 32.8376 19.0337 36.6112 18.5033Z" fill="white" fill-opacity="0.5"/>
</g>
<g clip-path="url(#clip1_1255_177141)">
<path d="M28.271 25.4785C28.5663 25.9264 28.7668 26.5437 28.8603 27.2092C29.0474 28.54 28.9596 30.4908 28.5318 32.983L28.4902 33.2275L28.5146 33.2606L28.3695 33.9476C28.1584 34.9416 27.9704 35.9565 27.7035 36.9622C27.4705 37.8362 27.2087 38.7024 26.9176 39.5588L26.6976 40.2041L26.5964 40.2558L26.5178 40.468C26.0361 41.7701 25.3047 43.4927 24.4022 44.922C23.9509 45.6367 23.4681 46.2583 22.969 46.7161C22.7802 46.8892 22.5942 47.0344 22.4109 47.1515C22.7037 46.8695 22.9982 46.5152 23.2871 46.1023C23.9587 45.1423 24.6543 43.8142 25.3185 42.2282L24.8888 42.048L24.7834 41.8172C25.0034 41.6821 25.2298 41.5464 25.463 41.4111L25.6462 41.3045L25.717 41.1062C26.2063 39.7291 26.638 38.3321 27.0121 36.9194L27.0142 36.9132C27.3533 35.5738 27.6492 34.2237 27.908 32.8666L27.937 32.9187L28.1934 31.2348C28.4998 29.2212 28.6111 27.4224 28.4434 26.2284C28.4121 26.0058 28.3611 25.7388 28.271 25.4785ZM40.0789 37.2012C40.3028 37.2859 40.4864 37.3886 40.6303 37.5044L40.6327 37.5001C40.8264 37.7021 40.9931 38.105 40.8868 38.4939L40.8815 38.5124L40.878 38.5297C40.8485 38.6728 40.7747 38.8432 40.5892 39.0012C40.4497 39.1201 40.2262 39.2484 39.8692 39.344C40.1696 39.0772 40.3696 38.717 40.3931 38.2724L40.3096 38.2674L40.3871 38.2713C40.4064 37.8288 40.2841 37.4736 40.0789 37.2012Z" fill="white" stroke="white" stroke-width="1.15"/>
</g>
<g clip-path="url(#clip2_1255_177141)">
<path d="M55.4497 6.9C55.4497 3.08924 58.5389 0 62.3497 0L78.9097 0L96.8497 16.445V43.7C96.8497 47.5108 93.7605 50.6 89.9497 50.6H62.3497C58.5389 50.6 55.4497 47.5108 55.4497 43.7V6.9Z" fill="#EAB308"/>
<path d="M85.8097 16.445H96.8497L78.9097 0V9.545C78.9097 13.3558 81.9989 16.445 85.8097 16.445Z" fill="white" fill-opacity="0.5"/>
</g>
<path fill-rule="evenodd" clip-rule="evenodd" d="M66.7501 23.4589C67.2893 22.9197 68.0205 22.6168 68.783 22.6168H72.5493H72.5542V22.6168C73.0278 22.6193 73.4934 22.7386 73.9096 22.9643C74.3233 23.1886 74.6755 23.511 74.9355 23.9031L75.7172 25.047L75.7263 25.0606C75.8131 25.1924 75.9312 25.3007 76.0699 25.376C76.2081 25.4509 76.3625 25.4907 76.5197 25.4918H84.1164C84.8789 25.4918 85.6101 25.7947 86.1493 26.3339C86.6884 26.873 86.9914 27.6043 86.9914 28.3668V37.9501C86.9914 38.7126 86.6884 39.4439 86.1493 39.9831C85.6101 40.5222 84.8789 40.8251 84.1164 40.8251H68.783C67.1996 40.8251 65.908 39.5336 65.908 37.9501V25.4918C65.908 24.7293 66.2109 23.998 66.7501 23.4589ZM68.783 24.5335C68.5289 24.5335 68.2851 24.6344 68.1054 24.8142C67.9257 24.9939 67.8247 25.2376 67.8247 25.4918V37.9501C67.8247 38.475 68.2581 38.9085 68.783 38.9085H84.1164C84.3705 38.9085 84.6143 38.8075 84.794 38.6278C84.9737 38.4481 85.0747 38.2043 85.0747 37.9501V28.3668C85.0747 28.1126 84.9737 27.8689 84.794 27.6892C84.6143 27.5094 84.3705 27.4085 84.1164 27.4085H76.5168H76.5118V27.4085C76.0383 27.406 75.5727 27.2866 75.1564 27.0609C74.7427 26.8367 74.3905 26.5143 74.1305 26.1222L73.3489 24.9783L73.3397 24.9647C73.2529 24.8329 73.1349 24.7245 72.9961 24.6493C72.858 24.5744 72.7035 24.5346 72.5464 24.5335H68.783Z" fill="#09090B"/>
<path fill-rule="evenodd" clip-rule="evenodd" d="M66.7501 23.4589C67.2893 22.9197 68.0205 22.6168 68.783 22.6168H72.5493H72.5542V22.6168C73.0278 22.6193 73.4934 22.7386 73.9096 22.9643C74.3233 23.1886 74.6755 23.511 74.9355 23.9031L75.7172 25.047L75.7263 25.0606C75.8131 25.1924 75.9312 25.3007 76.0699 25.376C76.2081 25.4509 76.3625 25.4907 76.5197 25.4918H84.1164C84.8789 25.4918 85.6101 25.7947 86.1493 26.3339C86.6884 26.873 86.9914 27.6043 86.9914 28.3668V37.9501C86.9914 38.7126 86.6884 39.4439 86.1493 39.9831C85.6101 40.5222 84.8789 40.8251 84.1164 40.8251H68.783C67.1996 40.8251 65.908 39.5336 65.908 37.9501V25.4918C65.908 24.7293 66.2109 23.998 66.7501 23.4589ZM68.783 24.5335C68.5289 24.5335 68.2851 24.6344 68.1054 24.8142C67.9257 24.9939 67.8247 25.2376 67.8247 25.4918V37.9501C67.8247 38.475 68.2581 38.9085 68.783 38.9085H84.1164C84.3705 38.9085 84.6143 38.8075 84.794 38.6278C84.9737 38.4481 85.0747 38.2043 85.0747 37.9501V28.3668C85.0747 28.1126 84.9737 27.8689 84.794 27.6892C84.6143 27.5094 84.3705 27.4085 84.1164 27.4085H76.5168H76.5118V27.4085C76.0383 27.406 75.5727 27.2866 75.1564 27.0609C74.7427 26.8367 74.3905 26.5143 74.1305 26.1222L73.3489 24.9783L73.3397 24.9647C73.2529 24.8329 73.1349 24.7245 72.9961 24.6493C72.858 24.5744 72.7035 24.5346 72.5464 24.5335H68.783Z" fill="white"/>
<g clip-path="url(#clip3_1255_177141)">
<path d="M106.707 5.19542C107.06 2.67963 109.387 0.926808 111.902 1.28038L130.579 3.90518L146.056 22.6869L141.942 51.9543C141.589 54.4701 139.263 56.2229 136.747 55.8693L104.86 51.3879C102.344 51.0344 100.592 48.7083 100.945 46.1925L106.707 5.19542Z" fill="#16A34A"/>
<path d="M135.123 21.1504L146.056 22.6869L130.579 3.90518L129.25 13.3573C128.72 17.131 131.349 20.6201 135.123 21.1504Z" fill="white" fill-opacity="0.5"/>
</g>
<path d="M115.623 35.3526L116.77 38.1043L116.828 38.1125L118.695 35.7843L120.475 36.0345L117.677 39.4418L119.479 43.4956L117.666 43.2409L116.495 40.4819L116.437 40.4738L114.55 42.803L112.745 42.5493L115.602 39.1502L113.836 35.1014L115.623 35.3526ZM120.22 43.5998L121.267 36.1458L122.843 36.3673L121.978 42.522L125.174 42.9711L124.991 44.2704L120.22 43.5998ZM130.62 39.6463C130.632 39.3486 130.539 39.103 130.341 38.9094C130.143 38.7158 129.855 38.5924 129.477 38.5392C129.219 38.503 128.997 38.5089 128.81 38.5568C128.623 38.6023 128.473 38.6815 128.361 38.7943C128.251 38.9076 128.185 39.0442 128.162 39.2044C128.138 39.3372 128.15 39.4575 128.197 39.5656C128.246 39.6739 128.32 39.7721 128.419 39.8603C128.518 39.946 128.636 40.0256 128.771 40.0991C128.907 40.1702 129.054 40.2353 129.211 40.2946L129.859 40.5488C130.173 40.6673 130.458 40.8063 130.713 40.9659C130.968 41.1254 131.182 41.3077 131.356 41.5128C131.53 41.7179 131.655 41.9482 131.73 42.2038C131.808 42.4597 131.827 42.7431 131.785 43.054C131.719 43.5098 131.547 43.889 131.269 44.1914C130.994 44.4918 130.628 44.7038 130.17 44.8275C129.715 44.9492 129.184 44.9673 128.578 44.8821C127.976 44.7975 127.465 44.6317 127.044 44.3845C126.626 44.1377 126.318 43.8159 126.118 43.4193C125.922 43.0205 125.856 42.5522 125.919 42.0142L127.444 42.2286C127.426 42.4809 127.468 42.6996 127.571 42.8848C127.676 43.0678 127.829 43.2168 128.031 43.3318C128.235 43.4446 128.473 43.5201 128.745 43.5583C129.012 43.5958 129.249 43.5896 129.457 43.5396C129.667 43.4899 129.836 43.4036 129.965 43.2806C130.093 43.1576 130.17 43.0064 130.195 42.8268C130.219 42.6594 130.189 42.5117 130.105 42.3836C130.024 42.256 129.895 42.1388 129.717 42.0321C129.541 41.9258 129.322 41.8208 129.06 41.7171L128.277 41.3992C127.67 41.158 127.207 40.8492 126.889 40.4729C126.571 40.0967 126.451 39.6333 126.531 39.0828C126.592 38.6312 126.768 38.2537 127.058 37.9506C127.35 37.6477 127.723 37.4317 128.177 37.3025C128.631 37.1732 129.129 37.1468 129.673 37.2232C130.226 37.3009 130.696 37.4634 131.081 37.7106C131.47 37.9582 131.755 38.2668 131.939 38.6365C132.122 39.0062 132.186 39.4136 132.131 39.8586L130.62 39.6463Z" fill="white"/>
</g>
<g filter="url(#filter0_dd_1255_177141)">
<rect x="56" y="31.75" width="40" height="40" rx="20" fill="#09090B" shape-rendering="crispEdges"/>
<path fill-rule="evenodd" clip-rule="evenodd" d="M76.8749 45.6251C76.8749 45.1418 76.4832 44.7501 75.9999 44.7501C75.5167 44.7501 75.1249 45.1418 75.1249 45.6251V50.8751H69.8749C69.3917 50.8751 68.9999 51.2668 68.9999 51.7501C68.9999 52.2333 69.3917 52.6251 69.8749 52.6251H75.1249V57.8751C75.1249 58.3583 75.5167 58.7501 75.9999 58.7501C76.4832 58.7501 76.8749 58.3583 76.8749 57.8751V52.6251H82.1249C82.6082 52.6251 82.9999 52.2333 82.9999 51.7501C82.9999 51.2668 82.6082 50.8751 82.1249 50.8751H76.8749V45.6251Z" fill="white"/>
</g>
<defs>
<filter id="filter0_dd_1255_177141" x="51" y="22.75" width="50" height="50" filterUnits="userSpaceOnUse" color-interpolation-filters="sRGB">
<feFlood flood-opacity="0" result="BackgroundImageFix"/>
<feColorMatrix in="SourceAlpha" type="matrix" values="0 0 0 0 0 0 0 0 0 0 0 0 0 0 0 0 0 0 127 0" result="hardAlpha"/>
<feMorphology radius="2" operator="erode" in="SourceAlpha" result="effect1_dropShadow_1255_177141"/>
<feOffset dy="-2"/>
<feGaussianBlur stdDeviation="2"/>
<feComposite in2="hardAlpha" operator="out"/>
<feColorMatrix type="matrix" values="0 0 0 0 0 0 0 0 0 0 0 0 0 0 0 0 0 0 0.2 0"/>
<feBlend mode="normal" in2="BackgroundImageFix" result="effect1_dropShadow_1255_177141"/>
<feColorMatrix in="SourceAlpha" type="matrix" values="0 0 0 0 0 0 0 0 0 0 0 0 0 0 0 0 0 0 127 0" result="hardAlpha"/>
<feMorphology radius="1" operator="erode" in="SourceAlpha" result="effect2_dropShadow_1255_177141"/>
<feOffset dy="-4"/>
<feGaussianBlur stdDeviation="3"/>
<feComposite in2="hardAlpha" operator="out"/>
<feColorMatrix type="matrix" values="0 0 0 0 0 0 0 0 0 0 0 0 0 0 0 0 0 0 0.2 0"/>
<feBlend mode="normal" in2="effect1_dropShadow_1255_177141" result="effect2_dropShadow_1255_177141"/>
<feBlend mode="normal" in="SourceGraphic" in2="effect2_dropShadow_1255_177141" result="shape"/>
</filter>
<clipPath id="clip0_1255_177141">
<rect width="41.4" height="50.6" fill="white" transform="translate(4.25806 6.44357) rotate(-8)"/>
</clipPath>
<clipPath id="clip1_1255_177141">
<rect width="23" height="23" fill="white" transform="translate(16.5467 25.6202) rotate(-8)"/>
</clipPath>
<clipPath id="clip2_1255_177141">
<rect width="41.4" height="50.6" fill="white" transform="translate(55.4497)"/>
</clipPath>
<clipPath id="clip3_1255_177141">
<rect width="41.4" height="50.6" fill="white" transform="translate(107.347 0.640182) rotate(8)"/>
</clipPath>
</defs>
</svg>
