<svg width="15" height="13" viewBox="0 0 15 13" fill="none" xmlns="http://www.w3.org/2000/svg">
<path fill-rule="evenodd" clip-rule="evenodd" d="M0.585786 0.585786C0.960859 0.210714 1.46957 0 2 0H4.62H4.62345V8.9407e-06C4.95286 0.00171316 5.27676 0.084759 5.56635 0.241768C5.85411 0.397782 6.09915 0.622024 6.28 0.894783L6.82376 1.69054L6.83012 1.70001C6.89051 1.79172 6.97262 1.86709 7.06915 1.91942C7.16526 1.97153 7.27271 1.9992 7.38202 2H12.6667C13.1971 2 13.7058 2.21071 14.0809 2.58579C14.456 2.96086 14.6667 3.46957 14.6667 4V10.6667C14.6667 11.1971 14.456 11.7058 14.0809 12.0809C13.7058 12.456 13.1971 12.6667 12.6667 12.6667H2C0.898477 12.6667 0 11.7682 0 10.6667V2C0 1.46957 0.210714 0.960859 0.585786 0.585786ZM2 1.33333C1.82319 1.33333 1.65362 1.40357 1.5286 1.5286C1.40357 1.65362 1.33333 1.82319 1.33333 2V10.6667C1.33333 11.0318 1.63486 11.3333 2 11.3333H12.6667C12.8435 11.3333 13.013 11.2631 13.1381 11.1381C13.2631 11.013 13.3333 10.8435 13.3333 10.6667V4C13.3333 3.82319 13.2631 3.65362 13.1381 3.5286C13.013 3.40357 12.8435 3.33333 12.6667 3.33333H7.38H7.37655V3.33332C7.04714 3.33162 6.72324 3.24857 6.43365 3.09157C6.14589 2.93555 5.90085 2.71131 5.72 2.43855L5.17624 1.64279L5.16988 1.63332C5.10949 1.54162 5.02738 1.46625 4.93085 1.41391C4.83474 1.3618 4.72729 1.33413 4.61798 1.33333H2Z" fill="#FAFAFA"/>
</svg>
