<svg width="51" height="51" viewBox="0 0 51 51" fill="none" xmlns="http://www.w3.org/2000/svg">
<g clip-path="url(#clip0_1374_9740)">
<path d="M4.29999 6C4.29999 2.68629 6.98628 0 10.3 0L27.76 0L45.7 16.445V44.6C45.7 47.9137 43.0137 50.6 39.7 50.6H10.3C6.98627 50.6 4.29999 47.9137 4.29999 44.6L4.29999 6Z" fill="#EAB308"/>
<path d="M34.66 16.445H45.7L27.76 0V9.545C27.76 13.3558 30.8492 16.445 34.66 16.445Z" fill="white" fill-opacity="0.5"/>
</g>
<path fill-rule="evenodd" clip-rule="evenodd" d="M15.6004 23.4587C16.1395 22.9196 16.8708 22.6167 17.6333 22.6167H21.3996H21.4045V22.6167C21.878 22.6191 22.3436 22.7385 22.7599 22.9642C23.1736 23.1885 23.5258 23.5108 23.7858 23.9029L24.5675 25.0468L24.5766 25.0604C24.6634 25.1923 24.7814 25.3006 24.9202 25.3758C25.0584 25.4507 25.2128 25.4905 25.37 25.4917H32.9666C33.7291 25.4917 34.4604 25.7946 34.9996 26.3337C35.5387 26.8729 35.8416 27.6042 35.8416 28.3667V37.95C35.8416 38.7125 35.5387 39.4438 34.9996 39.9829C34.4604 40.5221 33.7291 40.825 32.9666 40.825H17.6333C16.0499 40.825 14.7583 39.5334 14.7583 37.95V25.4917C14.7583 24.7292 15.0612 23.9979 15.6004 23.4587ZM17.6333 24.5333C17.3791 24.5333 17.1354 24.6343 16.9557 24.814C16.7759 24.9937 16.675 25.2375 16.675 25.4917V37.95C16.675 38.4749 17.1084 38.9083 17.6333 38.9083H32.9666C33.2208 38.9083 33.4646 38.8074 33.6443 38.6276C33.824 38.4479 33.925 38.2042 33.925 37.95V28.3667C33.925 28.1125 33.824 27.8687 33.6443 27.689C33.4646 27.5093 33.2208 27.4083 32.9666 27.4083H25.367H25.3621V27.4083C24.8886 27.4059 24.423 27.2865 24.0067 27.0608C23.593 26.8365 23.2408 26.5142 22.9808 26.1221L22.1991 24.9782L22.19 24.9646C22.1032 24.8327 21.9852 24.7244 21.8464 24.6492C21.7082 24.5743 21.5538 24.5345 21.3966 24.5333H17.6333Z" fill="#09090B"/>
<path fill-rule="evenodd" clip-rule="evenodd" d="M15.6004 23.4587C16.1395 22.9196 16.8708 22.6167 17.6333 22.6167H21.3996H21.4045V22.6167C21.878 22.6191 22.3436 22.7385 22.7599 22.9642C23.1736 23.1885 23.5258 23.5108 23.7858 23.9029L24.5675 25.0468L24.5766 25.0604C24.6634 25.1923 24.7814 25.3006 24.9202 25.3758C25.0584 25.4507 25.2128 25.4905 25.37 25.4917H32.9666C33.7291 25.4917 34.4604 25.7946 34.9996 26.3337C35.5387 26.8729 35.8416 27.6042 35.8416 28.3667V37.95C35.8416 38.7125 35.5387 39.4438 34.9996 39.9829C34.4604 40.5221 33.7291 40.825 32.9666 40.825H17.6333C16.0499 40.825 14.7583 39.5334 14.7583 37.95V25.4917C14.7583 24.7292 15.0612 23.9979 15.6004 23.4587ZM17.6333 24.5333C17.3791 24.5333 17.1354 24.6343 16.9557 24.814C16.7759 24.9937 16.675 25.2375 16.675 25.4917V37.95C16.675 38.4749 17.1084 38.9083 17.6333 38.9083H32.9666C33.2208 38.9083 33.4646 38.8074 33.6443 38.6276C33.824 38.4479 33.925 38.2042 33.925 37.95V28.3667C33.925 28.1125 33.824 27.8687 33.6443 27.689C33.4646 27.5093 33.2208 27.4083 32.9666 27.4083H25.367H25.3621V27.4083C24.8886 27.4059 24.423 27.2865 24.0067 27.0608C23.593 26.8365 23.2408 26.5142 22.9808 26.1221L22.1991 24.9782L22.19 24.9646C22.1032 24.8327 21.9852 24.7244 21.8464 24.6492C21.7082 24.5743 21.5538 24.5345 21.3966 24.5333H17.6333Z" fill="white"/>
<defs>
<clipPath id="clip0_1374_9740">
<rect width="41.4" height="50.6" fill="white" transform="translate(4.29999)"/>
</clipPath>
</defs>
</svg>
