<svg width="58" height="58" viewBox="0 0 58 58" fill="none" xmlns="http://www.w3.org/2000/svg">
<g clip-path="url(#clip0_1374_9752)">
<path d="M10.9572 5.19537C11.3108 2.67959 13.6369 0.926762 16.1526 1.28033L34.8291 3.90514L50.3058 22.6869L46.1925 51.9542C45.839 54.47 43.5129 56.2228 40.9971 55.8693L9.11048 51.3879C6.5947 51.0343 4.84188 48.7083 5.19545 46.1925L10.9572 5.19537Z" fill="#16A34A"/>
<path d="M39.3732 21.1504L50.3058 22.6868L34.8291 3.90512L33.5007 13.3572C32.9703 17.1309 35.5996 20.62 39.3732 21.1504Z" fill="white" fill-opacity="0.5"/>
</g>
<path d="M19.8738 35.3526L21.02 38.1044L21.0782 38.1126L22.9457 35.7844L24.7255 36.0345L21.9269 39.4418L23.7289 43.4957L21.9163 43.2409L20.7452 40.482L20.687 40.4738L18.8008 42.8031L16.9955 42.5494L19.8523 39.1502L18.0868 35.1015L19.8738 35.3526ZM24.4702 43.5999L25.5178 36.1458L27.0938 36.3673L26.2288 42.522L29.4244 42.9711L29.2418 44.2705L24.4702 43.5999ZM34.8704 39.6464C34.8826 39.3487 34.7897 39.103 34.5917 38.9094C34.3938 38.7158 34.1055 38.5924 33.727 38.5392C33.4698 38.5031 33.2475 38.509 33.0601 38.5569C32.8731 38.6023 32.7234 38.6815 32.6111 38.7944C32.5011 38.9076 32.4349 39.0443 32.4124 39.2044C32.3888 39.3372 32.4003 39.4576 32.447 39.5656C32.4961 39.6739 32.5702 39.7722 32.6691 39.8603C32.7684 39.946 32.8859 40.0256 33.0215 40.0992C33.1575 40.1702 33.3043 40.2354 33.4617 40.2946L34.1089 40.5489C34.4238 40.6674 34.7086 40.8064 34.9634 40.9659C35.2181 41.1254 35.4325 41.3077 35.6065 41.5128C35.7806 41.7179 35.9054 41.9482 35.9808 42.2038C36.0586 42.4597 36.077 42.7431 36.0357 43.054C35.9692 43.5099 35.7971 43.889 35.5196 44.1915C35.2448 44.4918 34.8785 44.7039 34.4206 44.8276C33.9656 44.9492 33.4347 44.9674 32.8281 44.8821C32.2264 44.7976 31.7152 44.6317 31.2947 44.3845C30.8766 44.1377 30.5679 43.816 30.3688 43.4193C30.1725 43.0206 30.1059 42.5522 30.1692 42.0143L31.6942 42.2286C31.676 42.4809 31.7183 42.6996 31.8209 42.8848C31.9263 43.0679 32.0798 43.2169 32.2814 43.3318C32.4858 43.4447 32.7239 43.5202 32.9956 43.5584C33.2625 43.5959 33.4997 43.5896 33.7072 43.5396C33.917 43.4899 34.0863 43.4036 34.2149 43.2806C34.3436 43.1577 34.4205 43.0064 34.4457 42.8269C34.4692 42.6594 34.4393 42.5117 34.3558 42.3837C34.2748 42.256 34.1453 42.1388 33.9673 42.0322C33.7917 41.9258 33.5726 41.8208 33.3101 41.7171L32.5271 41.3992C31.9201 41.158 31.4575 40.8493 31.1392 40.473C30.8209 40.0967 30.7017 39.6333 30.7816 39.0829C30.8426 38.6312 31.0181 38.2538 31.3081 37.9506C31.6006 37.6478 31.9737 37.4317 32.4273 37.3025C32.881 37.1733 33.3796 37.1468 33.9231 37.2232C34.4763 37.301 34.9459 37.4635 35.3318 37.7107C35.7201 37.9583 36.0058 38.2669 36.1889 38.6366C36.372 39.0062 36.436 39.4136 36.3809 39.8587L34.8704 39.6464Z" fill="white"/>
<defs>
<clipPath id="clip0_1374_9752">
<rect width="41.4" height="50.6" fill="white" transform="translate(11.5974 0.640137) rotate(8)"/>
</clipPath>
</defs>
</svg>
