<svg width="58" height="58" viewBox="0 0 58 58" fill="none" xmlns="http://www.w3.org/2000/svg">
<g clip-path="url(#clip0_1374_9734)">
<path d="M5.09322 12.3853C4.63204 9.10386 6.91833 6.06985 10.1998 5.60867L27.4899 3.17871L47.544 16.9669L51.4624 44.8479C51.9236 48.1294 49.6373 51.1634 46.3558 51.6245L17.2419 55.7162C13.9605 56.1774 10.9265 53.8911 10.4653 50.6097L5.09322 12.3853Z" fill="#B91C1C"/>
<path d="M36.6114 18.5034L47.544 16.9669L27.4899 3.17873L28.8183 12.6308C29.3486 16.4045 32.8377 19.0337 36.6114 18.5034Z" fill="white" fill-opacity="0.5"/>
</g>
<g clip-path="url(#clip1_1374_9734)">
<path d="M28.2709 25.4784C28.5663 25.9263 28.7667 26.5436 28.8603 27.2091C29.0473 28.5399 28.9596 30.4908 28.5317 32.9829L28.4902 33.2274L28.5145 33.2605L28.3695 33.9475C28.1584 34.9415 27.9703 35.9564 27.7034 36.9621C27.4705 37.8361 27.2086 38.7023 26.9175 39.5587L26.6976 40.204L26.5964 40.2557L26.5177 40.4679C26.036 41.77 25.3046 43.4926 24.4021 44.9219C23.9509 45.6366 23.468 46.2583 22.9689 46.716C22.7802 46.8891 22.5941 47.0344 22.4108 47.1514C22.7036 46.8694 22.9981 46.5151 23.287 46.1023C23.9587 45.1422 24.6542 43.8141 25.3184 42.2281L24.8897 42.0478L24.7842 41.816C25.0038 41.6811 25.2302 41.546 25.4629 41.411L25.6461 41.3044L25.7169 41.1061C26.2063 39.729 26.638 38.332 27.012 36.9193L27.0141 36.9131C27.3532 35.5737 27.6491 34.2236 27.9079 32.8665L27.9369 32.9186L28.1933 31.2347C28.4998 29.2211 28.6111 27.4224 28.4434 26.2283C28.4121 26.0057 28.361 25.7388 28.2709 25.4784ZM40.0788 37.2011C40.3027 37.2858 40.4863 37.3885 40.6303 37.5043L40.6326 37.5C40.8263 37.702 40.9931 38.1049 40.8867 38.4938L40.8814 38.5123L40.8779 38.5296C40.8484 38.6727 40.7746 38.8431 40.5892 39.0011C40.4496 39.1201 40.2261 39.2483 39.8691 39.3439C40.1695 39.0771 40.3695 38.7169 40.3931 38.2723L40.3095 38.2673L40.387 38.2712C40.4063 37.8288 40.284 37.4735 40.0788 37.2011Z" fill="white" stroke="white" stroke-width="1.15"/>
</g>
<defs>
<clipPath id="clip0_1374_9734">
<rect width="41.4" height="50.6" fill="white" transform="translate(4.25818 6.44371) rotate(-8)"/>
</clipPath>
<clipPath id="clip1_1374_9734">
<rect width="23" height="23" fill="white" transform="translate(16.5466 25.6201) rotate(-8)"/>
</clipPath>
</defs>
</svg>
