<svg width="177" height="170" viewBox="0 0 177 170" fill="none" xmlns="http://www.w3.org/2000/svg">
<path d="M119.177 66.8405C106.622 66.8405 93.8418 66.3305 81.8868 63.0005C70.1568 59.7455 59.3868 53.4305 49.7868 46.1255C43.5018 41.3705 37.7868 37.5905 29.6268 38.1605C21.6423 38.5852 14.0062 41.567 7.84681 46.6655C-2.53319 55.7555 -0.973189 72.5855 3.18181 84.3905C9.42181 102.196 28.4118 114.586 44.5518 122.626C63.1968 131.941 83.6868 137.341 104.222 140.461C122.222 143.191 145.352 145.186 160.952 133.426C175.277 122.626 179.207 97.9655 175.697 81.3155C174.846 76.3923 172.227 71.9492 168.332 68.8205C158.267 61.4705 143.252 66.3755 131.942 66.6305C127.742 66.7205 123.467 66.8105 119.177 66.8405Z" fill="#F4F4F5"/>
<path d="M88.4568 169.635C118.868 169.635 143.522 168.097 143.522 166.2C143.522 164.303 118.868 162.765 88.4568 162.765C58.0453 162.765 33.3918 164.303 33.3918 166.2C33.3918 168.097 58.0453 169.635 88.4568 169.635Z" fill="#F4F4F5"/>
<path d="M157.172 20.0552C157.984 20.0552 158.642 19.3971 158.642 18.5852C158.642 17.7734 157.984 17.1152 157.172 17.1152C156.36 17.1152 155.702 17.7734 155.702 18.5852C155.702 19.3971 156.36 20.0552 157.172 20.0552Z" fill="#F4F4F5"/>
<path d="M59.387 7.73981C60.1989 7.73981 60.857 7.08167 60.857 6.26981C60.857 5.45795 60.1989 4.7998 59.387 4.7998C58.5751 4.7998 57.917 5.45795 57.917 6.26981C57.917 7.08167 58.5751 7.73981 59.387 7.73981Z" fill="#F4F4F5"/>
<path d="M77.1618 147.705C77.9736 147.705 78.6318 147.047 78.6318 146.235C78.6318 145.423 77.9736 144.765 77.1618 144.765C76.3499 144.765 75.6918 145.423 75.6918 146.235C75.6918 147.047 76.3499 147.705 77.1618 147.705Z" fill="#F4F4F5"/>
<path d="M116.402 0.75V7.2" stroke="#E4E4E7" stroke-width="1.5" stroke-linecap="round" stroke-linejoin="round"/>
<path d="M113.177 3.97559H119.627" stroke="#E4E4E7" stroke-width="1.5" stroke-linecap="round" stroke-linejoin="round"/>
<path d="M11.3119 27.8994V34.3494" stroke="#E4E4E7" stroke-width="1.5" stroke-linecap="round" stroke-linejoin="round"/>
<path d="M8.07202 31.125H14.537" stroke="#E4E4E7" stroke-width="1.5" stroke-linecap="round" stroke-linejoin="round"/>
<path d="M16.1719 117.765V124.23" stroke="#E4E4E7" stroke-width="1.5" stroke-linecap="round" stroke-linejoin="round"/>
<path d="M12.932 120.99H19.397" stroke="#E4E4E7" stroke-width="1.5" stroke-linecap="round" stroke-linejoin="round"/>
<path d="M149.447 51.6299V58.0799" stroke="#E4E4E7" stroke-width="1.5" stroke-linecap="round" stroke-linejoin="round"/>
<path d="M146.222 54.8555H152.672" stroke="#E4E4E7" stroke-width="1.5" stroke-linecap="round" stroke-linejoin="round"/>
<path d="M104.491 13.9991L29.2015 23.8856C24.3216 24.5264 20.8852 29.0018 21.526 33.8816L33.0017 121.274C33.6425 126.154 38.1179 129.59 42.9977 128.949L118.287 119.063C123.167 118.422 126.604 113.947 125.963 109.067L114.487 21.6746C113.846 16.7948 109.371 13.3584 104.491 13.9991Z" fill="#E4E4E7"/>
<path d="M126.422 26.8193H50.372C45.4429 26.8193 41.447 30.8152 41.447 35.7443V124.019C41.447 128.948 45.4429 132.944 50.372 132.944H126.422C131.351 132.944 135.347 128.948 135.347 124.019V35.7443C135.347 30.8152 131.351 26.8193 126.422 26.8193Z" fill="white" stroke="#E4E4E7" stroke-width="1.5" stroke-linecap="round" stroke-linejoin="round"/>
<path d="M104.091 42.3623H56.6712C54.8928 42.3623 53.4512 43.8039 53.4512 45.5823V45.6023C53.4512 47.3807 54.8928 48.8223 56.6712 48.8223H104.091C105.87 48.8223 107.311 47.3807 107.311 45.6023V45.5823C107.311 43.8039 105.87 42.3623 104.091 42.3623Z" fill="#E4E4E7"/>
<path d="M121.771 57.8223H54.7512C54.0332 57.8223 53.4512 58.4043 53.4512 59.1223C53.4512 59.8402 54.0332 60.4223 54.7512 60.4223H121.771C122.489 60.4223 123.071 59.8402 123.071 59.1223C123.071 58.4043 122.489 57.8223 121.771 57.8223Z" fill="#E4E4E7"/>
<path d="M99.9312 69.4219H54.4312C53.8899 69.4219 53.4512 69.8606 53.4512 70.4019V70.7019C53.4512 71.2431 53.8899 71.6819 54.4312 71.6819H99.9312C100.472 71.6819 100.911 71.2431 100.911 70.7019V70.4019C100.911 69.8606 100.472 69.4219 99.9312 69.4219Z" fill="#E4E4E7"/>
</svg>
